<svg width="50" height="50" viewBox="0 0 50 50" fill="none" xmlns="http://www.w3.org/2000/svg">
<path d="M2.34376 -8.02514e-07L20.7031 17.2149L20.7031 25.0429L20.6073 25.1328L2.34376 8.00776L2.34376 -8.02514e-07Z" fill="white"/>
<path d="M50 31.6406L32.7851 50L24.9571 50L24.8672 49.9041L41.9922 31.6406L50 31.6406Z" fill="white"/>
<path d="M5.41972e-06 31.6406L17.2149 50L24.7773 50L24.8474 49.9252L7.70263 31.6406L5.41972e-06 31.6406Z" fill="white"/>
<path d="M3.21005e-06 31.6407L17.2149 13.2813L25.0429 13.2813L25.1328 13.3771L8.00776 31.6407L3.21005e-06 31.6407Z" fill="#3F3F3F"/>
<path d="M50 31.6406L32.7851 13.2813L25.2227 13.2813L25.1526 13.3561L42.2974 31.6406L50 31.6406Z" fill="#3F3F3F"/>
<path d="M2.34375 50L20.7031 32.7851L20.7031 25.2227L20.6283 25.1526L2.34375 42.2974L2.34375 50Z" fill="#3F3F3F"/>
<path d="M2.34375 50L20.7031 32.7851L20.7031 25.2227L20.6283 25.1526L2.34375 42.2974L2.34375 50Z" fill="#3F3F3F"/>
</svg>
